<svg width="48" height="48" viewBox="0 0 48 48" fill="none" xmlns="http://www.w3.org/2000/svg">
<path d="M40 20.2025C40 27.5659 29.1661 38.9248 25.3281 42.7177C24.5836 43.4535 23.4164 43.4535 22.6719 42.7177C18.8339 38.9248 8 27.5659 8 20.2025C8 11.2541 15.1634 4 24 4C32.8366 4 40 11.2541 40 20.2025Z" fill="#21A400"/>
<path fill-rule="evenodd" clip-rule="evenodd" d="M20.6666 21.6666C20.6666 19.8256 22.159 18.3333 24 18.3333C25.8409 18.3333 27.3333 19.8256 27.3333 21.6666C27.3333 23.5075 25.8409 24.9999 24 24.9999C22.159 24.9999 20.6666 23.5075 20.6666 21.6666ZM24 19.9999C23.0795 19.9999 22.3333 20.7461 22.3333 21.6666C22.3333 22.5871 23.0795 23.3333 24 23.3333C24.9204 23.3333 25.6666 22.5871 25.6666 21.6666C25.6666 20.7461 24.9204 19.9999 24 19.9999Z" fill="white"/>
<path d="M29.8333 18.3333H28.1666V19.9999H29.8333V18.3333Z" fill="white"/>
<path fill-rule="evenodd" clip-rule="evenodd" d="M20.8114 14.0675C21.1213 13.6084 21.639 13.3333 22.1929 13.3333H25.807C26.3609 13.3333 26.8786 13.6084 27.1885 14.0675L28.3804 15.8333H30.6666C31.5871 15.8333 32.3333 16.5794 32.3333 17.4999V25.8333C32.3333 26.7537 31.5871 27.4999 30.6666 27.4999H17.3333C16.4128 27.4999 15.6666 26.7537 15.6666 25.8333V17.4999C15.6666 16.5794 16.4128 15.8333 17.3333 15.8333H19.6195L20.8114 14.0675ZM25.807 14.9999L22.1929 14.9999L20.5054 17.4999H17.3333V25.8333H30.6666V17.4999H27.4945L25.807 14.9999Z" fill="white"/>
</svg>
