<svg width="48" height="48" viewBox="0 0 48 48" fill="none" xmlns="http://www.w3.org/2000/svg">
<path d="M40 20.2025C40 27.5659 29.1661 38.9248 25.3281 42.7177C24.5836 43.4535 23.4164 43.4535 22.6719 42.7177C18.8339 38.9248 8 27.5659 8 20.2025C8 11.2541 15.1634 4 24 4C32.8366 4 40 11.2541 40 20.2025Z" fill="#F0712A"/>
<path d="M23.0477 15.4166C23.0477 17.4121 22.2526 19.1098 21.143 19.739V28.2499C21.143 28.7562 20.7166 29.1666 20.1906 29.1666C19.6646 29.1666 19.2382 28.7562 19.2382 28.2499V19.7391C18.1285 19.11 17.3334 17.4122 17.3334 15.4166C17.3334 12.8853 18.6126 10.8333 20.1905 10.8333C21.7685 10.8333 23.0477 12.8853 23.0477 15.4166Z" fill="white"/>
<path d="M26.8572 10.8333V28.2498C26.8572 28.7561 27.2836 29.1665 27.8096 29.1665C28.3355 29.1665 28.7619 28.7561 28.7619 28.2498V21.225C28.7619 21.1265 28.7461 21.0326 28.7171 20.9448C29.9421 20.0818 30.5168 18.4642 30.6667 17.5173V16.1805C30.6667 12.9721 28.127 10.8333 26.8572 10.8333Z" fill="white"/>
</svg>
